<?xml version="1.0" ?><!DOCTYPE svg  PUBLIC '-//W3C//DTD SVG 1.1//EN'  'http://www.w3.org/Graphics/SVG/1.1/DTD/svg11.dtd'><svg height="100%" style="fill-rule: evenodd; stroke-linejoin: round; clip-rule: evenodd; stroke-miterlimit: 2" version="1.1" viewBox="0 0 600 600" width="100%" xml:space="preserve" xmlns="http://www.w3.org/2000/svg" xmlns:serif="http://www.serif.com/" xmlns:xlink="http://www.w3.org/1999/xlink"><g transform="matrix(1,0,0,1,44,43.8)"><path d="M 251.9 1.6 C 183.5 1.6 174.9 1.9 148.1 3.2 C 121.2 4.4 102.9 8.6 86.9 14.9 C 70.3 21.3 56.3 29.9 42.3 43.9 C 28.3 57.9 19.7 72 13.2 88.5 C 7 104.6 2.7 122.9 1.5 149.7 C 0.3 176.6 0 185.1 0 253.6 C 0 322 0.3 330.6 1.5 357.4 C 2.7 384.2 7 402.5 13.2 418.6 C 19.7 435.1 28.3 449.2 42.3 463.2 C 56.3 477.2 70.3 485.8 86.9 492.3 C 102.9 498.5 121.2 502.7 148.1 504 C 174.9 505.2 183.5 505.5 251.9 505.5 C 320.3 505.5 328.9 505.2 355.8 504 C 382.6 502.7 400.9 498.5 416.9 492.3 C 433.5 485.8 447.6 477.2 461.6 463.2 C 475.6 449.2 484.2 435.1 490.6 418.6 C 496.8 402.5 501.1 384.2 502.3 357.4 C 503.6 330.6 503.8 322 503.8 253.6 C 503.8 185.1 503.6 176.6 502.3 149.7 C 501.1 122.9 496.8 104.6 490.6 88.5 C 484.2 72 475.6 57.9 461.6 43.9 C 447.6 29.9 433.5 21.3 416.9 14.9 C 400.9 8.6 382.6 4.4 355.8 3.2 C 328.9 1.9 320.3 1.6 251.9 1.6 Z M 251.9 47 C 319.2 47 327.2 47.3 353.7 48.5 C 378.3 49.6 391.6 53.7 400.5 57.2 C 412.3 61.7 420.6 67.2 429.5 76 C 438.3 84.8 443.7 93.2 448.3 105 C 451.8 113.9 455.9 127.2 457 151.8 C 458.2 178.3 458.4 186.3 458.4 253.6 C 458.4 320.8 458.2 328.8 457 355.4 C 455.9 379.9 451.8 393.3 448.3 402.1 C 443.7 413.9 438.3 422.3 429.5 431.1 C 420.6 439.9 412.3 445.4 400.5 449.9 C 391.6 453.4 378.3 457.5 353.7 458.6 C 327.2 459.8 319.2 460.1 251.9 460.1 C 184.7 460.1 176.7 459.8 150.1 458.6 C 125.6 457.5 112.2 453.4 103.3 449.9 C 91.6 445.4 83.2 439.9 74.4 431.1 C 65.6 422.3 60.1 413.9 55.5 402.1 C 52.1 393.3 48 379.9 46.9 355.4 C 45.6 328.8 45.4 320.8 45.4 253.6 C 45.4 186.3 45.6 178.3 46.9 151.8 C 48 127.2 52.1 113.9 55.5 105 C 60.1 93.2 65.6 84.8 74.4 76 C 83.2 67.2 91.6 61.7 103.3 57.2 C 112.2 53.7 125.6 49.6 150.1 48.5 C 176.7 47.3 184.7 47 251.9 47 Z" style="fill-rule: nonzero"/><path d="M 251.9 337.5 C 205.5 337.5 167.9 299.9 167.9 253.6 C 167.9 207.2 205.5 169.6 251.9 169.6 C 298.3 169.6 335.9 207.2 335.9 253.6 C 335.9 299.9 298.3 337.5 251.9 337.5 Z M 251.9 124.2 C 180.5 124.2 122.6 182.1 122.6 253.6 C 122.6 325 180.5 382.9 251.9 382.9 C 323.4 382.9 381.3 325 381.3 253.6 C 381.3 182.1 323.4 124.2 251.9 124.2 Z" style="fill: rgb(3, 4, 4); fill-rule: nonzero"/><path d="M 416.6 119.1 C 416.6 135.8 403.1 149.3 386.4 149.3 C 369.7 149.3 356.2 135.8 356.2 119.1 C 356.2 102.4 369.7 88.9 386.4 88.9 C 403.1 88.9 416.6 102.4 416.6 119.1 Z" style="fill: rgb(3, 4, 4); fill-rule: nonzero"/></g></svg>