<?xml version="1.0" ?>
<svg data-name="Layer 1" id="Layer_1" viewBox="0 16 128 32" xmlns="http://www.w3.org/2000/svg">
<defs>
<style>.cls-1{fill:none;stroke:#078cd6;stroke-linecap:round;stroke-linejoin:round;stroke-width:1px;}
</style>
</defs>
<title/>
<path class="cls-1" d="M 38.1 21.7 C 38.1 25.1 35.4 31 32 31 s -6.2 -5.9 -6.2 -9.3 a 6.2 6.2 0 0 1 12.3 0 Z"/>
<path class="cls-1" d="M 19.3 48.3 a 12.7 12.7 0 0 1 25.3 0"/>
<path class="cls-1" d="M 53.5 25.8 c 0 2.9 -2.3 8 -5.2 8 s -5.2 -5.2 -5.2 -8 a 5.2 5.2 0 0 1 10.4 0 Z"/>
<path class="cls-1" d="M 41.8 39.9 A 10.7 10.7 0 0 1 59 48.5"/>
<path class="cls-1" d="M 10.5 25.8 c 0 2.9 2.3 8 5.2 8 s 5.2 -5.2 5.2 -8 a 5.2 5.2 0 0 0 -10.4 0 Z"/>
<path class="cls-1" d="M 22.2 39.9 A 10.7 10.7 0 0 0 5 48.5"/>
    <text textLength="52.3" font-size="13" x="57.9" y="38.6" fill="rgb(255, 255, 255)">
        DevOps
    </text>

</svg>